<svg class="icon flat-color" width="48" height="48" id="create-note-alt" data-name="Flat color" xmlns="http://www.w3.org/2000/svg" viewBox="0 0 24 24"><path id="primary" d="M22,7.93V20a2,2,0,0,1-2,2H4a2,2,0,0,1-2-2V4A2,2,0,0,1,4,2H14.5c-.16.15-.31.3-.45.46C12.24,4.53,12,7.58,12,9.17l-1.41,1.42a2,2,0,0,0,0,2.82,2,2,0,0,0,2.82,0L14.83,12A8.16,8.16,0,0,0,21,9.54,7,7,0,0,0,22,7.93Z" style="fill:#3c5f18"></path><path id="secondary" d="M22,1.94a1,1,0,0,0-.87-.9,9.45,9.45,0,0,0-2.83.17,1,1,0,0,0-.76.72l-.18.72-.83-.33a1,1,0,0,0-1,.13,4.87,4.87,0,0,0-.7.67C13,5.15,13,8.36,13,9.58l-1.72,1.71a1,1,0,0,0,0,1.42,1,1,0,0,0,1.42,0L14.42,11h.36a7.2,7.2,0,0,0,5.41-2.12h0C22.37,6.39,22,2.12,22,1.94Z" style="fill:#8cd4e4"></path></svg>